<svg xmlns="http://www.w3.org/2000/svg" width="317" height="359" fill="none"><path fill="#fdf7f2" d="M152.161 48c0 26.51-16.789 48-37.5 48-20.71 0-37.5-21.49-37.5-48s16.79-48 37.5-48c20.711 0 37.5 21.49 37.5 48ZM243.161 48c0 26.51-16.789 48-37.5 48-20.71 0-37.5-21.49-37.5-48s16.79-48 37.5-48c20.711 0 37.5 21.49 37.5 48ZM282.013 139.829c16.771 1.576 32-14.531 34.015-35.976 2.014-21.444-9.948-40.106-26.718-41.682-16.771-1.576-32 14.531-34.015 35.976-2.015 21.444 9.947 40.106 26.718 41.682ZM60.913 97.117c2.743 21.363-8.578 40.421-25.286 42.566-16.708 2.144-32.475-13.436-35.217-34.8-2.743-21.364 8.578-40.42 25.286-42.566 16.707-2.144 32.475 13.436 35.217 34.8Z"/><path fill="#fdf7f2" d="M158.161 359c276-163.5 55-300 0-187-47-112-283 15.5 0 187Z"/></svg>
