<svg xmlns="http://www.w3.org/2000/svg" width="20" height="20" fill="none"><path fill="#F59256" d="M10 7.708a2.708 2.708 0 1 0 0 5.417 2.708 2.708 0 0 0 0-5.417Z"/><path fill="#F59256" fill-rule="evenodd" d="M7.709.208c-1.15 0-2.084.933-2.084 2.083v.15a.685.685 0 0 1-.684.684 3.899 3.899 0 0 0-3.899 3.898v3.843c0 1.336 0 2.383.08 3.22.08.853.249 1.552.626 2.167a4.791 4.791 0 0 0 1.582 1.582c.616.377 1.314.546 2.167.627.837.08 1.884.08 3.22.08h2.566c1.336 0 2.384 0 3.22-.08.854-.081 1.552-.25 2.168-.627a4.79 4.79 0 0 0 1.582-1.582c.377-.615.545-1.314.626-2.167.08-.837.08-1.884.08-3.22V7.023a3.899 3.899 0 0 0-3.9-3.898.685.685 0 0 1-.684-.685v-.149c0-1.15-.932-2.083-2.083-2.083H7.709ZM6.042 10.416a3.958 3.958 0 1 1 7.917 0 3.958 3.958 0 0 1-7.917 0ZM15 7.916a.833.833 0 1 1 0-1.666.833.833 0 0 1 0 1.666Z" clip-rule="evenodd"/></svg>