<svg width="93" height="100" viewBox="0 0 93 100" fill="none" xmlns="http://www.w3.org/2000/svg">
<g clip-path="url(#clip0_2108_449)">
<rect width="93" height="100" fill="white"/>
<path d="M70.8917 69.6552H93V71.2679H71.6206C71.8228 72.7277 71.0599 74.4158 69.4936 75.5189C66.5556 76.985 64.6456 80.65 61.1193 82.5546C57.593 84.4593 54.5082 81.8221 54.5082 81.8221C55.3893 89.7379 52.0108 93.9889 52.0108 93.9889C51.3564 94.6461 46.9118 98.9629 40.0922 98.5149C33.7535 98.0987 30.0345 93.8732 29.3854 93.1098C28.2458 91.9696 25.9272 89.9959 22.6275 89.3897C20.5866 89.0149 19.2608 89.3887 18.9543 89.4449C18.2233 89.5787 16.6602 90.1042 15.5206 91.6373C14.5182 92.9856 14.4097 94.4178 14.4001 95.0156C14.4001 95.5889 14.4001 95.8946 14.4001 95.8946C14.4001 95.901 14.7459 97.8917 13.9596 98.9735C13.2254 99.9842 11.5165 100.184 10.2864 99.8526C9.52026 99.6466 8.97865 99.2453 8.67007 98.9735C4.11583 93.99 8.81691 86.8067 13.2243 84.6079C17.6317 82.4092 27.3286 83.4347 31.736 88.2728C36.1434 93.1098 41.8734 92.3773 41.8734 92.3773C49.6603 91.9378 48.6313 83.4358 48.6313 83.4358C44.8113 85.7811 40.6976 85.488 40.6976 85.488C29.6791 85.488 28.0628 77.3142 28.0628 77.3142C28.0628 77.3142 23.8086 74.1822 23.9342 71.269H0V69.6563H24.5354C26.3805 67.2728 29.3493 68.7326 30.7741 69.6563H64.9212C65.6086 69.0787 66.6567 68.4449 67.9868 68.4099C68.57 68.395 69.0807 68.498 69.4925 68.6296C69.7787 68.7591 70.3916 69.0745 70.8917 69.6552ZM93 48.8399V50.4526H63.2634C62.0046 51.3688 60.6298 51.9092 59.8062 51.7723C58.9103 51.6226 57.9686 51.0132 57.261 50.4526H32.7745C32.6234 50.6904 32.5702 50.8921 32.5702 50.8921C30.4782 52.0568 28.7108 51.7415 27.1498 50.4526H0V48.8399H25.6399C25.209 48.273 24.7929 47.6338 24.3886 46.9342C22.1849 43.1227 27.7074 41.51 27.7074 41.51C26.7529 40.4696 25.973 39.4185 25.3388 38.3717L17.2657 41.302C16.9103 41.4304 16.5325 41.2882 16.4218 40.9845C16.3112 40.6798 16.5091 40.3295 16.8645 40.1999L24.7589 37.3355C24.2822 36.4129 23.914 35.4977 23.6363 34.5996C23.5862 34.6134 23.533 34.6219 23.4766 34.6219H15.7047C15.3801 34.6219 15.1173 34.3596 15.1173 34.0358C15.1173 33.712 15.3801 33.4498 15.7047 33.4498H23.3256C21.7858 26.7654 24.977 21.2829 24.977 21.2829C24.977 21.2829 18.2191 11.9008 21.4507 7.64987C24.6833 3.3989 34.2323 11.0218 34.2323 11.0218C42.4597 6.7708 49.6592 8.09047 49.6592 8.09047C55.9766 -1.87765 59.503 0.174578 59.503 0.174578C64.7925 2.22681 62.1472 13.6611 62.1472 13.6611C66.1822 19.0725 67.7314 23.7163 67.9113 27.5755L73.703 25.0498C74.001 24.9202 74.3468 25.0551 74.4766 25.3523C74.6064 25.6496 74.4713 25.9947 74.1733 26.1242L67.9219 28.8506C67.8847 30.0503 67.7144 31.1672 67.4516 32.198L75.3502 31.6991C75.728 31.6757 76.0493 31.9178 76.0706 32.2416C76.0908 32.5643 75.8024 32.8457 75.4247 32.8701L67.0941 33.3956C65.2447 38.7688 60.9735 41.5122 60.9735 41.5122C64.9404 40.339 66.4099 43.4179 66.1162 46.3492C66.0289 47.2187 65.5916 48.0744 64.9755 48.841H93V48.8399ZM57.7345 25.0455C57.3099 25.0848 56.9162 25.1506 56.5512 25.2366C56.9811 25.5381 60.5032 28.1913 58.8752 32.8924C61.8216 32.0271 62.5271 29.5513 62.5271 29.5513C63.0538 24.8894 57.7345 25.0455 57.7345 25.0455ZM52.6706 8.2476C52.6706 8.2476 59.2593 10.8232 59.5647 11.6482C59.5647 11.6482 61.8046 4.57418 58.2708 3.06235C58.2708 3.06235 54.9541 2.56336 52.6706 8.2476ZM51.8236 31.5048C52.1332 32.645 54.8583 33.0293 54.8583 33.0293C55.384 33.1164 55.8745 33.1642 56.3331 33.1812C55.7032 32.6758 53.4825 30.5578 54.1943 26.3142C51.6895 28.2125 51.8236 31.5048 51.8236 31.5048ZM45.2699 34.3405C45.986 35.0603 46.351 35.2069 46.351 35.2069C46.351 35.2069 46.1329 36.38 45.3987 36.5265C45.3987 36.5265 45.105 37.4056 45.6924 37.2591C46.2797 37.1126 47.1618 35.7929 47.1618 35.7929C47.1618 35.7929 48.4845 36.3789 48.7782 36.3789C49.0719 36.3789 49.954 35.7929 49.2187 35.7929C48.4845 35.7929 47.4555 35.2069 47.4555 35.2069C47.4555 35.2069 48.925 34.0337 48.3366 33.0081C47.7492 31.9815 45.2699 33.0081 45.2699 33.0081C45.2699 33.0081 44.5538 33.6207 45.2699 34.3405ZM36.1732 35.8821C36.6254 35.8014 37.1032 35.6857 37.6118 35.5264C37.6118 35.5264 40.256 34.7663 40.4029 33.5942C40.4029 33.5942 40.0741 30.3157 37.3288 28.7847C38.628 32.8871 36.7254 35.295 36.1732 35.8821ZM33.6449 28.0235C33.6449 28.0235 28.3554 28.6096 29.5312 33.1546C29.5312 33.1546 30.5761 35.5073 33.6151 35.9532C31.3455 31.5249 34.4611 28.4068 34.8441 28.0479C34.4685 28.014 34.0706 28.0033 33.6449 28.0235ZM31.4412 12.4858C27.3275 7.94183 24.3896 9.55453 24.3896 9.55453C21.5986 12.1928 26.1528 18.0565 26.1528 18.0565C26.1517 17.1763 31.4412 12.4858 31.4412 12.4858Z" fill="#f59256"/>
</g>
<defs>
<clipPath id="clip0_2108_449">
<rect width="93" height="100" fill="white"/>
</clipPath>
</defs>
</svg>
