<?xml version="1.0" encoding="utf-8"?>
<!-- Generator: Adobe Illustrator 27.0.1, SVG Export Plug-In . SVG Version: 6.00 Build 0)  -->
<svg version="1.1" id="Слой_1" xmlns="http://www.w3.org/2000/svg" xmlns:xlink="http://www.w3.org/1999/xlink" x="0px" y="0px"
	 viewBox="0 0 320 100" style="enable-background:new 0 0 320 100;" xml:space="preserve">
<style type="text/css">
	/* .st0{fill:#F59256;} */
</style>
<g fill="none">
	<g>
		<g>
			<g>
				<path class="st0" d="M299.218,98.184c-1.576-1.096-2.471-2.587-2.634-4.511c-0.173-2.04-0.766-3.958-1.691-5.781
					c-0.71-1.398-0.903-2.854-0.415-4.367c0.58-1.795,2.126-2.931,4.02-2.937c1.534-0.004,3.049-0.177,4.558-0.427
					c1.329-0.22,2.646-0.504,3.978-0.703c2.753-0.412,4.897,1.253,5.777,2.988c0.548,1.081,0.479,2.193,0.047,3.29
					c-0.646,1.647-1.677,3.116-3.007,4.284c-1.027,0.912-1.718,2.068-2.237,3.325c-0.356,0.861-0.633,1.755-1.008,2.607
					c-1.004,2.279-3.427,3.492-5.815,2.942C300.226,98.763,299.691,98.522,299.218,98.184z"/>
				<path class="st0" d="M295.515,71.434c1.436,1.078,2.416,2.503,2.616,4.358c0.193,1.787-0.658,3.339-2.551,3.87
					c-1.057,0.296-2.107,0.131-3.122-0.264c-0.941-0.375-1.796-0.939-2.509-1.659c-0.979-0.962-1.974-1.91-2.711-3.084
					c-0.228-0.346-0.418-0.716-0.567-1.103c-0.345-0.959-0.138-1.706,0.644-2.364c0.65-0.547,1.415-0.833,2.243-0.927
					c1.845-0.209,3.636-0.008,5.325,0.817C295.084,71.176,295.274,71.297,295.515,71.434z"/>
				<path class="st0" d="M290.234,79.956c1.111,0.756,1.985,1.706,2.426,3.002c0.663,1.949-0.224,3.806-2.157,4.513
					c-1.216,0.445-2.438,0.376-3.663,0.04c-1.515-0.415-2.637-1.358-3.504-2.631c-0.879-1.289-1.457-2.699-1.647-4.257
					c-0.08-0.649,0.061-1.305,0.4-1.864c0.461-0.783,1.208-0.983,2.046-0.95c0.922,0.036,1.808,0.263,2.67,0.581
					c1.092,0.404,2.182,0.816,3.192,1.406C290.079,79.846,290.156,79.903,290.234,79.956z"/>
				<path class="st0" d="M286.882,95.651c-1.327-0.915-2.366-2.063-2.869-3.625c-0.236-0.732-0.231-1.455,0.311-2.077
					c0.347-0.398,0.818-0.594,1.314-0.736c1.029-0.295,2.082-0.299,3.137-0.244c0.976,0.043,1.94,0.24,2.855,0.581
					c1.104,0.421,2.005,1.111,2.594,2.155c0.899,1.594,0.327,3.453-1.327,4.322c-1.443,0.758-2.94,0.958-4.501,0.407
					C287.857,96.244,287.348,95.98,286.882,95.651z"/>
				<path class="st0" d="M304.362,69.633c1.23,0.818,2.12,1.89,2.48,3.349c0.213,0.822,0.232,1.682,0.056,2.513
					c-0.39,1.77-2.011,2.764-3.822,2.344c-1.169-0.271-2.112-0.91-2.861-1.841c-1.136-1.39-1.912-3.038-2.262-4.799
					c-0.077-0.373-0.092-0.756-0.046-1.134c0.103-0.804,0.599-1.384,1.381-1.605c0.931-0.264,1.851-0.136,2.761,0.101
					C302.875,68.785,303.657,69.148,304.362,69.633z"/>
			</g>
		</g>
	</g>
	<animate attributeType="XML" attributeName="fill" values="#fdf7f2; #f59256; #f59256; #f59256; #f59256; #f59256; #f59256; #f59256; #fdf7f2; #fdf7f2; #fdf7f2; #fdf7f2; #fdf7f2" begin="0s" dur="7s" fill="freeze" repeatCount="indefinite"/>
</g>
<g fill="#fdf7f2">
	<g>
		<g>
			<g>
				<path class="st0" d="M193.58,75.108c-1.84-0.547-3.156-1.684-3.913-3.46c-0.803-1.884-1.967-3.52-3.416-4.961
					c-1.112-1.106-1.751-2.428-1.761-4.017c-0.011-1.886,1.102-3.449,2.899-4.047c1.455-0.484,2.84-1.122,4.196-1.833
					c1.193-0.625,2.355-1.307,3.558-1.913c2.486-1.253,5.043-0.343,6.422,1.029c0.859,0.855,1.141,1.932,1.074,3.11
					c-0.098,1.767-0.617,3.485-1.515,5.01c-0.69,1.187-0.984,2.502-1.084,3.858c-0.068,0.929-0.051,1.865-0.141,2.791
					c-0.24,2.479-2.161,4.389-4.602,4.614C194.718,75.342,194.135,75.28,193.58,75.108z"/>
				<path class="st0" d="M181.689,50.862c1.701,0.574,3.078,1.621,3.849,3.32c0.743,1.636,0.42,3.377-1.211,4.474
					c-0.911,0.612-1.96,0.783-3.047,0.726c-1.011-0.061-1.999-0.33-2.902-0.79c-1.231-0.607-2.472-1.196-3.541-2.08
					c-0.325-0.257-0.621-0.549-0.884-0.87c-0.628-0.803-0.665-1.577-0.129-2.447c0.446-0.723,1.083-1.234,1.84-1.582
					c1.687-0.776,3.45-1.146,5.313-0.891C181.199,50.751,181.417,50.807,181.689,50.862z"/>
				<path class="st0" d="M179.342,60.609c1.292,0.37,2.419,0.999,3.244,2.092c1.24,1.643,0.978,3.685-0.635,4.962
					c-1.015,0.803-2.197,1.12-3.466,1.185c-1.569,0.08-2.929-0.464-4.152-1.401c-1.239-0.949-2.229-2.108-2.897-3.527
					c-0.279-0.591-0.351-1.259-0.204-1.896c0.193-0.888,0.84-1.312,1.646-1.543c0.887-0.255,1.799-0.316,2.717-0.284
					c1.164,0.041,2.328,0.092,3.472,0.336C179.16,60.552,179.25,60.583,179.342,60.609z"/>
				<path class="st0" d="M181.071,76.564c-1.546-0.453-2.893-1.219-3.86-2.545c-0.453-0.622-0.675-1.309-0.355-2.07
					c0.205-0.487,0.591-0.82,1.017-1.11c0.885-0.602,1.883-0.936,2.903-1.213c0.941-0.264,1.917-0.38,2.894-0.342
					c1.18,0.054,2.252,0.427,3.138,1.235c1.353,1.233,1.391,3.177,0.093,4.52c-1.133,1.172-2.493,1.83-4.148,1.795
					C182.182,76.822,181.616,76.731,181.071,76.564z"/>
				<path class="st0" d="M189.527,46.381c1.424,0.392,2.605,1.132,3.404,2.404c0.46,0.714,0.747,1.525,0.84,2.369
					c0.184,1.803-1.045,3.254-2.896,3.422c-1.195,0.108-2.291-0.203-3.294-0.853c-1.514-0.965-2.767-2.287-3.65-3.85
					c-0.19-0.33-0.324-0.689-0.399-1.063c-0.154-0.795,0.136-1.502,0.809-1.957c0.802-0.542,1.715-0.708,2.654-0.769
					C187.85,46.042,188.706,46.141,189.527,46.381z"/>
			</g>
		</g>
	</g>
<animate attributeType="XML" attributeName="fill" values="#fdf7f2; #f59256; #f59256; #f59256; #f59256; #f59256; #f59256; #f59256; #fdf7f2; #fdf7f2; #fdf7f2; #fdf7f2; #fdf7f2" begin="800ms" dur="7s" repeatCount="indefinite" />
</g>
<g fill="#fdf7f2">
	<g>
		<g>
			<g>
				<path class="st0" d="M100.099,80.54c-1.806,0.651-3.54,0.517-5.203-0.464c-1.764-1.04-3.671-1.667-5.693-1.967
					c-1.551-0.23-2.851-0.916-3.801-2.189c-1.128-1.512-1.159-3.431-0.068-4.978c0.884-1.253,1.621-2.589,2.29-3.964
					c0.589-1.211,1.121-2.449,1.729-3.651c1.258-2.483,3.857-3.268,5.78-2.981c1.199,0.178,2.065,0.878,2.71,1.866
					c0.969,1.48,1.57,3.171,1.753,4.932c0.149,1.365,0.692,2.598,1.417,3.749c0.496,0.788,1.065,1.532,1.543,2.331
					c1.278,2.138,0.864,4.816-0.967,6.444C101.154,80.052,100.648,80.349,100.099,80.54z"/>
				<path class="st0" d="M76.142,68.076c1.71-0.547,3.439-0.521,5.068,0.389c1.569,0.877,2.342,2.469,1.679,4.32
					c-0.37,1.033-1.113,1.793-2.022,2.393c-0.851,0.551-1.805,0.92-2.805,1.086c-1.352,0.242-2.7,0.504-4.084,0.426
					c-0.414-0.014-0.826-0.073-1.228-0.176c-0.982-0.274-1.471-0.875-1.555-1.894c-0.07-0.847,0.14-1.636,0.542-2.365
					c0.898-1.626,2.098-2.969,3.748-3.87C75.682,68.277,75.892,68.193,76.142,68.076z"/>
				<path class="st0" d="M80.036,77.314c1.259-0.468,2.54-0.631,3.853-0.24c1.973,0.587,2.974,2.386,2.432,4.371
					c-0.341,1.249-1.104,2.205-2.087,3.01c-1.215,0.995-2.634,1.364-4.174,1.335c-1.56-0.029-3.044-0.374-4.424-1.121
					c-0.575-0.31-1.03-0.805-1.289-1.405c-0.372-0.83-0.102-1.554,0.409-2.218c0.563-0.731,1.261-1.322,2.019-1.841
					c0.962-0.657,1.928-1.307,2.994-1.789C79.856,77.377,79.947,77.348,80.036,77.314z"/>
				<path class="st0" d="M90.893,89.133c-1.514,0.553-3.052,0.735-4.617,0.241c-0.734-0.232-1.32-0.654-1.513-1.456
					c-0.124-0.514-0.011-1.01,0.16-1.497c0.355-1.01,0.961-1.87,1.617-2.699c0.6-0.771,1.318-1.443,2.127-1.992
					c0.982-0.656,2.066-0.992,3.259-0.868c1.821,0.19,3.005,1.732,2.756,3.583c-0.217,1.615-0.921,2.952-2.274,3.906
					C91.941,88.681,91.431,88.944,90.893,89.133z"/>
				<path class="st0" d="M79.794,59.818c1.379-0.53,2.769-0.635,4.166-0.084c0.794,0.302,1.506,0.784,2.082,1.409
					c1.218,1.342,1.089,3.24-0.301,4.473c-0.898,0.796-1.965,1.195-3.158,1.267c-1.791,0.121-3.584-0.199-5.222-0.933
					c-0.349-0.153-0.67-0.362-0.951-0.619c-0.596-0.549-0.782-1.289-0.51-2.055c0.324-0.912,0.961-1.588,1.681-2.193
					C78.242,60.541,78.991,60.113,79.794,59.818z"/>
			</g>
		</g>
	</g>
<animate attributeType="XML" attributeName="fill" values="#fdf7f2; #f59256; #f59256; #f59256; #f59256; #f59256; #f59256; #f59256; #fdf7f2; #fdf7f2; #fdf7f2; #fdf7f2; #fdf7f2" begin="1600ms" dur="7s" repeatCount="indefinite" />	
</g>
<g fill="#fdf7f2">
	<g>
		<g>
			<g>
				<path class="st0" d="M265.653,34.532c-1.793-0.685-3.531-0.581-5.214,0.374c-1.786,1.013-3.707,1.608-5.735,1.874
					c-1.556,0.204-2.87,0.869-3.847,2.13c-1.16,1.497-1.23,3.422-0.169,4.994c0.859,1.273,1.568,2.626,2.21,4.018
					c0.565,1.225,1.071,2.477,1.656,3.694c1.208,2.514,3.791,3.347,5.721,3.093c1.203-0.158,2.084-0.845,2.749-1.825
					c1-1.469,1.636-3.155,1.854-4.918c0.177-1.367,0.745-2.594,1.494-3.737c0.513-0.782,1.097-1.518,1.591-2.312
					c1.322-2.123,0.963-4.817-0.836-6.484C266.698,35.039,266.198,34.733,265.653,34.532z"/>
				<path class="st0" d="M241.433,46.618c1.699,0.579,3.43,0.583,5.078-0.301c1.587-0.852,2.393-2.437,1.768-4.305
					c-0.349-1.043-1.077-1.819-1.974-2.436c-0.84-0.568-1.787-0.955-2.784-1.139c-1.347-0.266-2.691-0.553-4.077-0.499
					c-0.415,0.007-0.828,0.059-1.232,0.156c-0.988,0.258-1.489,0.852-1.595,1.873c-0.087,0.849,0.106,1.644,0.494,2.383
					c0.865,1.647,2.038,3.017,3.671,3.949C240.977,46.408,241.184,46.496,241.433,46.618z"/>
				<path class="st0" d="M245.516,37.416c1.25,0.492,2.528,0.678,3.849,0.309c1.986-0.554,3.024-2.342,2.522-4.343
					c-0.316-1.259-1.06-2.232-2.027-3.057c-1.196-1.02-2.607-1.415-4.148-1.413c-1.561,0.002-3.053,0.322-4.449,1.047
					c-0.582,0.301-1.046,0.79-1.318,1.387c-0.389,0.826-0.134,1.558,0.364,2.233c0.548,0.744,1.234,1.349,1.982,1.882
					c0.948,0.676,1.902,1.345,2.959,1.848C245.337,37.35,245.428,37.381,245.516,37.416z"/>
				<path class="st0" d="M256.618,25.747c-1.503-0.581-3.038-0.791-4.614-0.323c-0.739,0.22-1.334,0.633-1.543,1.434
					c-0.134,0.513-0.032,1.014,0.13,1.505c0.335,1.02,0.923,1.894,1.563,2.736c0.585,0.784,1.289,1.471,2.087,2.036
					c0.969,0.676,2.047,1.031,3.242,0.928c1.825-0.158,3.041-1.685,2.83-3.547c-0.184-1.625-0.861-2.978-2.195-3.959
					C257.658,26.219,257.153,25.947,256.618,25.747z"/>
				<path class="st0" d="M244.918,54.968c1.368,0.556,2.757,0.686,4.166,0.157c0.8-0.289,1.523-0.761,2.111-1.377
					c1.245-1.326,1.156-3.232-0.21-4.494c-0.882-0.815-1.941-1.234-3.133-1.327c-1.789-0.153-3.59,0.137-5.243,0.845
					c-0.352,0.148-0.677,0.352-0.964,0.604c-0.607,0.54-0.808,1.28-0.552,2.053c0.305,0.921,0.929,1.61,1.636,2.231
					C243.38,54.216,244.12,54.659,244.918,54.968z"/>
			</g>
		</g>
	</g>
	 <animate attributeType="XML" attributeName="fill" values="#fdf7f2; #f59256; #f59256; #f59256; #f59256; #f59256; #f59256; #f59256; #fdf7f2; #fdf7f2; #fdf7f2; #fdf7f2; #fdf7f2" begin="400ms" dur="7s" repeatCount="indefinite" />
</g>
<g fill="#fdf7f2">
	<g>
		<g>
			<g>
				<path class="st0" d="M135.971,14.997c-1.901,0.263-3.375,1.189-4.391,2.837c-1.078,1.747-2.475,3.193-4.126,4.402
					c-1.266,0.928-2.098,2.143-2.347,3.718c-0.296,1.87,0.569,3.591,2.255,4.459c1.366,0.703,2.639,1.547,3.871,2.459
					c1.085,0.802,2.131,1.656,3.229,2.441c2.269,1.623,4.934,1.109,6.504-0.042c0.978-0.717,1.42-1.744,1.532-2.923
					c0.17-1.769-0.084-3.553-0.742-5.203c-0.503-1.284-0.595-2.633-0.489-3.994c0.073-0.932,0.231-1.859,0.282-2.792
					c0.137-2.497-1.474-4.686-3.853-5.281C137.132,14.939,136.546,14.911,135.971,14.997z"/>
				<path class="st0" d="M120.556,37.247c1.768-0.31,3.288-1.139,4.306-2.708c0.981-1.511,0.925-3.288-0.522-4.625
					c-0.808-0.747-1.819-1.076-2.903-1.186c-1.009-0.093-2.026,0.023-2.989,0.341c-1.309,0.415-2.625,0.81-3.814,1.525
					c-0.36,0.206-0.697,0.45-1.005,0.729c-0.742,0.701-0.896,1.464-0.497,2.409c0.332,0.786,0.884,1.39,1.58,1.851
					c1.551,1.027,3.238,1.664,5.118,1.695C120.055,37.283,120.28,37.26,120.556,37.247z"/>
				<path class="st0" d="M119.707,27.216c1.333-0.17,2.542-0.622,3.523-1.582c1.474-1.442,1.523-3.508,0.121-5.021
					c-0.883-0.952-2.003-1.447-3.248-1.705c-1.539-0.319-2.966,0.014-4.316,0.757c-1.368,0.753-2.521,1.752-3.396,3.059
					c-0.365,0.544-0.537,1.196-0.487,1.85c0.056,0.911,0.632,1.43,1.394,1.782c0.838,0.388,1.731,0.588,2.644,0.696
					c1.157,0.136,2.315,0.264,3.483,0.196C119.519,27.244,119.613,27.227,119.707,27.216z"/>
				<path class="st0" d="M123.824,11.644c-1.597,0.214-3.044,0.768-4.2,1.937c-0.542,0.548-0.865,1.197-0.663,2
					c0.129,0.515,0.46,0.904,0.838,1.257c0.784,0.733,1.721,1.216,2.687,1.647c0.89,0.406,1.838,0.669,2.809,0.781
					c1.175,0.126,2.291-0.081,3.289-0.747c1.524-1.017,1.855-2.941,0.774-4.472c-0.943-1.336-2.188-2.196-3.83-2.414
					C124.962,11.558,124.389,11.562,123.824,11.644z"/>
				<path class="st0" d="M127.629,42.89c1.467-0.171,2.746-0.726,3.728-1.867c0.562-0.638,0.969-1.4,1.188-2.223
					c0.454-1.761-0.542-3.389-2.347-3.838c-1.165-0.29-2.296-0.148-3.385,0.344c-1.642,0.727-3.081,1.848-4.19,3.264
					c-0.237,0.299-0.425,0.635-0.555,0.994c-0.272,0.766-0.093,1.511,0.504,2.065c0.711,0.66,1.589,0.964,2.508,1.168
					C125.919,42.971,126.781,43.002,127.629,42.89z"/>
			</g>
		</g>
	</g>
<animate attributeType="XML" attributeName="fill" values="#fdf7f2; #f59256; #f59256; #f59256; #f59256; #f59256; #f59256; #f59256; #fdf7f2; #fdf7f2; #fdf7f2; #fdf7f2; #fdf7f2" begin="1200ms" dur="7s" repeatCount="indefinite" />
</g>
<g fill="#fdf7f2">
	<g>
		<g>
			<g>
				<path class="st0" d="M20.582,53.356c-1.559,1.12-2.429,2.628-2.558,4.559c-0.137,2.048-0.698,3.98-1.593,5.82
					c-0.686,1.412-0.855,2.875-0.339,4.384c0.612,1.792,2.18,2.91,4.076,2.89c1.536-0.016,3.056,0.136,4.571,0.367
					c1.334,0.203,2.658,0.469,3.995,0.651c2.764,0.375,4.881-1.323,5.732-3.074c0.53-1.091,0.441-2.205-0.01-3.3
					c-0.676-1.643-1.734-3.102-3.085-4.255c-1.044-0.9-1.756-2.05-2.297-3.304c-0.371-0.858-0.664-1.751-1.054-2.6
					c-1.045-2.272-3.492-3.455-5.873-2.871C21.581,52.763,21.05,53.012,20.582,53.356z"/>
				<path class="st0" d="M17.34,80.23c1.419-1.1,2.375-2.543,2.544-4.406c0.162-1.794-0.717-3.339-2.621-3.846
					c-1.063-0.283-2.111-0.102-3.121,0.307c-0.936,0.389-1.781,0.966-2.483,1.697c-0.964,0.978-1.943,1.942-2.661,3.129
					c-0.222,0.35-0.406,0.724-0.548,1.114c-0.329,0.966-0.109,1.712,0.686,2.362c0.661,0.54,1.431,0.816,2.261,0.899
					c1.851,0.184,3.64-0.041,5.317-0.891C16.914,80.495,17.102,80.37,17.34,80.23z"/>
				<path class="st0" d="M11.905,71.756c1.099-0.773,1.957-1.737,2.377-3.044c0.63-1.963-0.291-3.814-2.238-4.496
					c-1.225-0.43-2.447-0.344-3.668,0.009c-1.51,0.437-2.616,1.397-3.463,2.685c-0.858,1.305-1.412,2.726-1.575,4.29
					c-0.069,0.652,0.083,1.308,0.433,1.864c0.475,0.779,1.227,0.969,2.065,0.925c0.923-0.049,1.806-0.288,2.663-0.619
					c1.087-0.42,2.17-0.848,3.172-1.453C11.752,71.868,11.827,71.81,11.905,71.756z"/>
				<path class="st0" d="M8.275,56.063c-1.313,0.935-2.333,2.101-2.809,3.674c-0.223,0.737-0.206,1.462,0.348,2.078
					c0.355,0.395,0.829,0.584,1.328,0.72c1.035,0.282,2.089,0.272,3.145,0.202c0.977-0.057,1.938-0.266,2.848-0.621
					c1.098-0.437,1.988-1.141,2.559-2.196c0.873-1.611,0.267-3.467-1.404-4.316c-1.458-0.741-2.961-0.921-4.514-0.347
					C9.241,55.456,8.736,55.727,8.275,56.063z"/>
				<path class="st0" d="M26.23,81.916c1.217-0.837,2.09-1.924,2.424-3.392c0.199-0.827,0.203-1.69,0.012-2.521
					c-0.421-1.769-2.062-2.744-3.868-2.298c-1.166,0.288-2.099,0.941-2.833,1.885c-1.113,1.409-1.862,3.072-2.181,4.843
					c-0.07,0.375-0.079,0.759-0.026,1.138c0.117,0.804,0.624,1.379,1.41,1.591c0.937,0.252,1.855,0.111,2.763-0.138
					C24.755,82.787,25.532,82.412,26.23,81.916z"/>
			</g>
		</g>
	</g>
<animate attributeType="XML" attributeName="fill" values="#fdf7f2; #f59256; #f59256; #f59256; #f59256; #f59256; #f59256; #f59256; #fdf7f2; #fdf7f2; #fdf7f2; #fdf7f2; #fdf7f2" begin="2000ms" dur="7s" repeatCount="indefinite" />
</g>
</svg>
