<?xml version="1.0" encoding="utf-8"?>
<!-- Generator: Adobe Illustrator 26.0.1, SVG Export Plug-In . SVG Version: 6.00 Build 0)  -->
<svg version="1.1" id="Слой_1" xmlns="http://www.w3.org/2000/svg" xmlns:xlink="http://www.w3.org/1999/xlink" x="0px"
	y="0px" width="600px" height="400px" viewBox="0 0 600 400" style="enable-background:new 0 0 600 400;"
	xml:space="preserve">
	<style type="text/css">
		.st0 {
			fill: #fdf7f2;
			stroke: #2C2516;
			stroke-width: 5;
			stroke-miterlimit: 10;
		}

		.st1 {
			fill: #2C2516;
		}

		.st2 {
			fill: #E5231E;
		}

		.st3 {
			fill: none;
		}

		.st4 {
			fill: #2D2514;
		}

		.st5 {
			fill: #DADADA;
		}

		.st6 {
			fill: none;
			stroke: #020009;
			stroke-linejoin: round;
			stroke-miterlimit: 10;
		}

		.st7 {
			fill: #2D2514;
			stroke: #030405;
			stroke-miterlimit: 10;
		}
	</style>
	<path class="st5"
		d="M78.436,286.875c0,0-1.125-0.844,7.734,0s27.984,5.906,30.516,6.891s18,7.734,20.391,10.547
	s15.469,16.453,16.875,18.703s9,9.844,9,9.844l-5.203,2.812c0,0-7.453,2.109-12.234,7.594s-9.703,13.5-10.688,24.047
	s0.141,25.312,0.141,25.312s-27.844,1.828-37.406,1.125s-30.656-9.984-36-14.484s-15.047-12.375-15.75-18.562
	s0.422-20.812,4.5-30.516s11.953-26.297,11.953-26.297l3.656-7.312l4.973-7.676C70.893,288.902,77.592,285.891,78.436,286.875z" />
	<path class="st5" d="M173.297,295.146c-6.015-4.075-12.71-9.702-24.837-21.053c-11.836-10.963-21.247-17.852-29.688-21.732
	c-5.53-2.62-7.179-2.911-13.583-2.522l-7.373,0.291l-1.746-4.851c-1.261-3.784-1.649-7.082-1.358-14.65
	c0.291-8.538,0.776-10.575,3.396-16.396c2.814-5.918,3.299-6.5,5.336-5.821c1.164,0.388,4.657,0.97,7.664,1.164
	c4.754,0.388,6.306,0.097,10.575-2.231c7.082-3.881,10.575-10.09,10.575-19.016v-6.5l4.172-0.873
	c6.5-1.455,23.77-1.261,30.658,0.291c21.15,5.045,39.002,22.897,42.883,42.98c2.037,10.866-0.291,33.569-3.105,29.3
	c-0.776-1.261-1.164-1.067-2.814,0.97c-3.881,4.851-7.568,13.583-9.314,22.12c-1.455,7.47-1.94,8.635-3.493,8.15
	c-2.134-0.485-2.329,1.94-0.291,3.687c0.776,0.679,1.455,1.843,1.455,2.523c0,1.455-5.045,4.269-10.866,6.112
	C178.148,298.251,177.663,298.057,173.297,295.146z" />
	<g>
		<g>
			<path class="st0" d="M248.722,210.09c-6.772,0-12.296-2.878-12.313-6.416l-0.162-33.08c-0.016-3.309-5.179-6-11.509-6h-20.192
			c-6.775,0-12.286-2.881-12.286-6.423V11.44c0-3.541,5.512-6.422,12.286-6.422h375.853c6.775,0,12.287,2.881,12.287,6.422v146.731
			c-0.002,3.541-5.513,6.422-12.287,6.422H395.021c-2.156,0-4.262,0.315-6.091,0.911l-133.732,43.602
			C253.225,209.75,250.985,210.09,248.722,210.09z" />
		</g>
	</g>
	<g>
		<path class="st1" d="M226.144,59.17h-8.667V25.845h8.667L226.144,59.17L226.144,59.17z" />
		<path class="st1"
			d="M244.576,25.845l-8.13,14.648h-5.127l5.737-14.648C237.056,25.845,244.576,25.845,244.576,25.845z" />
		<path class="st1" d="M288.058,59.17h-8.032V47.98c0-1.95-0.204-3.283-0.61-3.999c-0.603-1.056-1.506-1.584-2.71-1.584
		c-1.335,0-2.36,0.577-3.076,1.731c-0.505,0.812-0.757,2.097-0.757,3.852v11.19h-8.032V47.98c0-1.95-0.163-3.218-0.488-3.803
		c-0.651-1.17-1.652-1.755-3.003-1.755c-1.253,0-2.23,0.504-2.93,1.511c-0.261,0.358-0.448,0.85-0.562,1.475
		c-0.114,0.626-0.171,1.483-0.171,2.572v11.19h-8.032V36.514h8.032v2.783c0.945-0.911,1.809-1.579,2.592-2.002
		c1.418-0.765,3-1.147,4.744-1.147c2.233,0,4.092,0.578,5.576,1.733c0.75,0.586,1.467,1.416,2.152,2.49
		c0.62-1.009,1.312-1.807,2.079-2.393c1.614-1.237,3.456-1.855,5.526-1.855c1.695,0,3.203,0.407,4.524,1.221
		c1.418,0.896,2.347,2.108,2.787,3.638c0.261,0.928,0.392,2.083,0.392,3.467V59.17H288.058z" />
		<path class="st1" d="M331.222,59.17h-8.032V47.712c0-1.999-0.227-3.324-0.68-3.974c-0.663-0.959-1.658-1.438-2.984-1.438
		c-1.213,0-2.232,0.413-3.057,1.239c-0.744,0.745-1.116,1.911-1.116,3.498V59.17h-8.032V36.514h8.032v2.856
		c0.926-1.074,1.779-1.831,2.56-2.271c1.268-0.716,2.852-1.074,4.754-1.074c2.438,0,4.42,0.659,5.947,1.978
		c1.739,1.498,2.608,3.744,2.608,6.738L331.222,59.17L331.222,59.17z" />
		<path class="st1" d="M363.058,47.842c0,3.142-1.034,5.835-3.101,8.081c-2.507,2.734-6.015,4.102-10.522,4.102
		c-4.525,0-8.041-1.367-10.547-4.102c-2.067-2.246-3.101-5.005-3.101-8.276c0-2.946,1.041-5.558,3.125-7.837
		c2.522-2.75,6.111-4.126,10.767-4.126c4.28,0,7.698,1.375,10.254,4.126C362.016,42.056,363.058,44.733,363.058,47.842z
		 M354.708,47.842c0-1.472-0.515-2.718-1.543-3.74c-1.029-1.022-2.272-1.533-3.73-1.533c-1.652,0-2.997,0.622-4.034,1.864
		c-0.843,0.998-1.264,2.134-1.264,3.409c0,1.292,0.421,2.437,1.264,3.434c1.037,1.243,2.382,1.864,4.034,1.864
		c1.474,0,2.722-0.511,3.742-1.533S354.708,49.33,354.708,47.842z" />
		<path class="st1"
			d="M381.148,43.081h-4.565V59.17h-8.032V43.081h-2.637v-6.567h2.637v-6.812h8.032v6.812h4.565V43.081z" />
		<path class="st1" d="M415.035,58.682c-1.66,0.83-3.402,1.245-5.225,1.245c-4.135,0-7.414-1.399-9.839-4.199
		c-1.953-2.262-2.93-4.883-2.93-7.861c0-2.995,0.977-5.615,2.93-7.861c2.425-2.799,5.704-4.199,9.839-4.199
		c1.855,0,3.597,0.423,5.225,1.27v6.812c-1.412-0.993-2.793-1.489-4.14-1.489c-1.592,0-2.906,0.513-3.945,1.538
		s-1.559,2.336-1.559,3.931s0.52,2.905,1.559,3.931s2.354,1.538,3.945,1.538c1.331,0,2.711-0.488,4.14-1.465V58.682z" />
		<path class="st1" d="M436.593,43.887c-1.12-0.537-2.257-0.806-3.409-0.806c-2.629,0-4.334,1.083-5.112,3.247
		c-0.292,0.781-0.438,1.831-0.438,3.149v9.692h-8.032V36.514h8.032v3.711c0.844-1.318,1.753-2.271,2.728-2.856
		c1.314-0.781,2.872-1.172,4.674-1.172c0.422,0,0.941,0.024,1.559,0.073v7.617H436.593z" />
		<path class="st1" d="M467.843,36.514l-18.188,33.984h-8.984l7.69-14.429l-10.938-19.556h9.302l6.055,11.621l5.884-11.621
		L467.843,36.514L467.843,36.514z" />
		<path class="st1" d="M479.073,27.81c0,1.267-0.435,2.334-1.303,3.202s-1.936,1.302-3.201,1.302c-1.251,0-2.31-0.438-3.178-1.314
		c-0.868-0.877-1.303-1.94-1.303-3.19s0.435-2.309,1.303-3.177s1.927-1.303,3.178-1.303c1.249,0,2.312,0.435,3.189,1.303
		C478.635,25.501,479.073,26.561,479.073,27.81z M478.585,59.17h-8.032V36.514h8.032V59.17z" />
		<path class="st1" d="M507.955,59.17h-8.032V47.712c0-1.999-0.227-3.324-0.68-3.974c-0.663-0.959-1.658-1.438-2.984-1.438
		c-1.213,0-2.232,0.413-3.057,1.239c-0.744,0.745-1.116,1.911-1.116,3.498V59.17h-8.032V36.514h8.032v2.856
		c0.926-1.074,1.779-1.831,2.56-2.271c1.268-0.716,2.852-1.074,4.754-1.074c2.438,0,4.42,0.659,5.947,1.978
		c1.739,1.498,2.608,3.744,2.608,6.738L507.955,59.17L507.955,59.17z" />
		<path class="st1" d="M538.79,57.607c0,1.985-0.139,3.589-0.415,4.81c-0.439,1.953-1.579,3.703-3.418,5.249
		c-2.328,1.953-5.42,2.93-9.277,2.93c-4.037,0-7.251-1.066-9.644-3.198c-1.596-1.416-2.612-2.897-3.052-4.443
		c-0.049-0.163-0.114-0.505-0.195-1.025h8.984c0.26,0.741,0.61,1.272,1.05,1.595c0.716,0.532,1.627,0.798,2.734,0.798
		c1.855,0,3.279-0.657,4.272-1.972c0.618-0.827,0.928-2.012,0.928-3.553v-2.142c-0.959,0.879-1.764,1.498-2.414,1.855
		c-1.349,0.749-2.941,1.123-4.778,1.123c-2.309,0-4.373-0.594-6.193-1.782c-1.869-1.221-3.21-2.889-4.022-5.005
		c-0.553-1.432-0.829-2.986-0.829-4.663c0-3.711,1.179-6.73,3.535-9.058c2.194-2.165,4.836-3.247,7.924-3.247
		c1.642,0,3.104,0.334,4.389,1.001c0.764,0.407,1.561,1.074,2.39,2.002v-2.368h8.032L538.79,57.607L538.79,57.607z M531.148,47.769
		c0-1.448-0.494-2.693-1.482-3.735s-2.203-1.562-3.645-1.562c-1.604,0-2.916,0.619-3.937,1.855
		c-0.811,0.993-1.215,2.141-1.215,3.442c0,1.449,0.498,2.69,1.494,3.723c0.996,1.034,2.215,1.55,3.657,1.55
		c1.425,0,2.636-0.517,3.633-1.55C530.65,50.458,531.148,49.217,531.148,47.769z" />
		<path class="st1"
			d="M550.387,56.253c0,0.801-0.29,1.495-0.87,2.083c-0.581,0.588-1.287,0.882-2.121,0.882
		c-0.816,0-1.516-0.294-2.096-0.882s-0.87-1.283-0.87-2.083c0-0.85,0.286-1.581,0.858-2.194c0.571-0.613,1.274-0.919,2.107-0.919
		c0.834,0,1.54,0.307,2.121,0.919C550.097,54.672,550.387,55.403,550.387,56.253z M549.947,52.188h-5.273V35.439h5.273V52.188z" />
		<path class="st1"
			d="M562.838,56.253c0,0.801-0.29,1.495-0.87,2.083c-0.581,0.588-1.287,0.882-2.121,0.882
		c-0.816,0-1.516-0.294-2.096-0.882s-0.87-1.283-0.87-2.083c0-0.85,0.286-1.581,0.858-2.194c0.571-0.613,1.274-0.919,2.107-0.919
		c0.834,0,1.54,0.307,2.121,0.919C562.548,54.672,562.838,55.403,562.838,56.253z M562.398,52.188h-5.273V35.439h5.273V52.188z" />
		<path class="st1"
			d="M575.289,56.253c0,0.801-0.29,1.495-0.87,2.083c-0.581,0.588-1.287,0.882-2.121,0.882
		c-0.816,0-1.516-0.294-2.096-0.882s-0.87-1.283-0.87-2.083c0-0.85,0.286-1.581,0.858-2.194c0.571-0.613,1.274-0.919,2.107-0.919
		c0.834,0,1.54,0.307,2.121,0.919C574.999,54.672,575.289,55.403,575.289,56.253z M574.85,52.188h-5.273V35.439h5.273V52.188z" />
	</g>
	<g>
		<path class="st1" d="M211.674,111.403c0,0.734-0.252,1.354-0.755,1.857c-0.504,0.503-1.123,0.755-1.857,0.755
		c-0.725,0-1.34-0.254-1.843-0.762c-0.503-0.509-0.755-1.125-0.755-1.85s0.252-1.339,0.755-1.843
		c0.503-0.503,1.118-0.755,1.843-0.755s1.341,0.252,1.85,0.755C211.419,110.064,211.674,110.678,211.674,111.403z M211.391,136.162
		h-4.659v-19.711h4.659V136.162z" />
		<path class="st1" d="M228.567,124.792c0,2.445-1.156,4.069-3.469,4.871c-0.963,0.331-2.138,0.496-3.526,0.496
		c-2.728,0-4.687-0.67-5.876-2.011c-0.755-0.85-1.133-1.968-1.133-3.356v-8.34h4.659v7.448c0,0.821,0.197,1.425,0.591,1.812
		c0.422,0.416,1.009,0.623,1.759,0.623c0.741,0,1.323-0.208,1.745-0.623c0.394-0.387,0.591-0.991,0.591-1.812v-7.448h4.659V124.792z
		" />
		<path class="st1" d="M242.416,125.16c0,1.397-0.5,2.54-1.501,3.427c-1.124,1-2.705,1.501-4.744,1.501
		c-1.803,0-3.554-0.505-5.253-1.515l1.685-3.285c1.327,0.869,2.561,1.303,3.7,1.303c0.97,0,1.455-0.335,1.455-1.005
		c0-0.349-0.169-0.618-0.508-0.807c-0.217-0.123-0.707-0.269-1.469-0.439c-0.857-0.188-1.417-0.334-1.681-0.438
		c-0.941-0.367-1.577-0.942-1.907-1.724c-0.179-0.424-0.269-0.933-0.269-1.527c0-1.15,0.392-2.154,1.175-3.011
		c1.01-1.103,2.568-1.654,4.673-1.654c1.463,0,2.884,0.283,4.262,0.85l-1.572,3.002c-0.866-0.453-1.693-0.68-2.483-0.68
		c-0.932,0-1.397,0.324-1.397,0.971c0,0.295,0.188,0.533,0.565,0.714c0.169,0.085,0.668,0.212,1.498,0.382
		c1.214,0.255,2.109,0.661,2.684,1.218C242.053,123.14,242.416,124.046,242.416,125.16z" />
		<path class="st1"
			d="M252.625,120.26h-2.648v9.332h-4.659v-9.332h-1.529v-3.809h1.529V112.5h4.659v3.951h2.648V120.26z" />
		<path class="st1" d="M277.703,123.043c0,2.244-0.778,4.036-2.333,5.375c-1.235,1.066-2.654,1.599-4.256,1.599
		c-0.934,0-1.81-0.198-2.63-0.595c-0.471-0.227-0.957-0.6-1.457-1.119v7.859h-4.659v-19.711h4.659v1.473
		c0.415-0.547,0.862-0.954,1.343-1.218c0.792-0.444,1.692-0.666,2.701-0.666c1.631,0,3.083,0.561,4.355,1.683
		C276.944,119.063,277.703,120.836,277.703,123.043z M272.86,123.028c0-0.747-0.235-1.396-0.705-1.944
		c-0.592-0.7-1.353-1.05-2.283-1.05c-0.836,0-1.543,0.289-2.121,0.866c-0.578,0.577-0.867,1.287-0.867,2.128
		c0,0.833,0.291,1.541,0.874,2.122c0.583,0.582,1.288,0.873,2.114,0.873c0.93,0,1.687-0.35,2.269-1.05
		C272.62,124.405,272.86,123.757,272.86,123.028z" />
		<path class="st1"
			d="M295.162,129.592h-4.659v-1.458c-0.443,0.557-0.891,0.963-1.343,1.218c-0.792,0.444-1.692,0.666-2.701,0.666
		c-1.631,0-3.083-0.561-4.355-1.683c-1.518-1.339-2.277-3.112-2.277-5.319c0-2.245,0.778-4.037,2.333-5.375
		c1.235-1.065,2.654-1.599,4.256-1.599c0.934,0,1.81,0.193,2.63,0.581c0.471,0.227,0.957,0.6,1.457,1.119v-1.289h4.659
		L295.162,129.592L295.162,129.592z M290.645,123.021c0-0.827-0.292-1.529-0.874-2.107c-0.583-0.578-1.287-0.867-2.114-0.867
		c-0.921,0-1.677,0.348-2.269,1.043c-0.479,0.564-0.719,1.207-0.719,1.931s0.24,1.367,0.719,1.931
		c0.583,0.695,1.339,1.043,2.269,1.043c0.836,0,1.543-0.287,2.121-0.859C290.356,124.562,290.645,123.858,290.645,123.021z" />
		<path class="st1" d="M313.047,128.686c0,1.152-0.081,2.082-0.241,2.79c-0.255,1.133-0.916,2.147-1.982,3.044
		c-1.35,1.133-3.144,1.699-5.381,1.699c-2.341,0-4.205-0.618-5.593-1.855c-0.925-0.821-1.515-1.68-1.77-2.577
		c-0.028-0.094-0.066-0.292-0.113-0.595h5.211c0.151,0.43,0.354,0.738,0.609,0.925c0.415,0.308,0.943,0.462,1.586,0.462
		c1.075,0,1.901-0.381,2.478-1.144c0.358-0.48,0.538-1.167,0.538-2.061v-1.242c-0.557,0.51-1.023,0.869-1.4,1.076
		c-0.782,0.434-1.706,0.651-2.771,0.651c-1.339,0-2.535-0.345-3.592-1.034c-1.084-0.708-1.862-1.676-2.333-2.903
		c-0.321-0.831-0.481-1.732-0.481-2.705c0-2.152,0.684-3.903,2.051-5.253c1.273-1.255,2.804-1.883,4.596-1.883
		c0.952,0,1.8,0.193,2.545,0.581c0.442,0.236,0.904,0.623,1.386,1.161v-1.374h4.659v12.237H313.047z M308.614,122.979
		c0-0.84-0.287-1.562-0.859-2.167c-0.573-0.604-1.278-0.906-2.114-0.906c-0.93,0-1.691,0.359-2.283,1.076
		c-0.47,0.576-0.704,1.241-0.704,1.997c0,0.84,0.288,1.56,0.866,2.16c0.578,0.599,1.285,0.899,2.121,0.899
		c0.826,0,1.529-0.3,2.106-0.899C308.325,124.539,308.614,123.819,308.614,122.979z" />
		<path class="st1" d="M330.166,123.885h-9.756c0,1.973,0.948,2.959,2.845,2.959c0.967,0,1.708-0.416,2.225-1.246h4.503
		c-0.358,1.186-0.888,2.104-1.586,2.752c-1.265,1.177-2.959,1.765-5.084,1.765c-2.699,0-4.729-0.821-6.088-2.464
		c-1.02-1.227-1.529-2.724-1.529-4.489c0-2.096,0.637-3.8,1.911-5.112s3.073-1.968,5.396-1.968c2.859,0,4.903,1.041,6.131,3.121
		c0.689,1.172,1.033,2.534,1.033,4.085L330.166,123.885L330.166,123.885z M325.819,121.237c-0.329-1.482-1.207-2.223-2.634-2.223
		c-0.789,0-1.428,0.236-1.916,0.708c-0.385,0.375-0.629,0.881-0.732,1.516L325.819,121.237L325.819,121.237z" />
		<path class="st2" d="M352.725,124.191l-1.248,3.059h-0.563v2.341h-3.452v-2.341h-6.597v-2.786l6.597-10.835h3.452v10.562
		C350.914,124.191,352.725,124.191,352.725,124.191z M347.461,124.191v-4.871l-3.127,4.871H347.461z" />
		<path class="st2"
			d="M366.892,121.372c0,2.518-0.5,4.552-1.501,6.101c-1.059,1.641-2.503,2.461-4.335,2.461
		s-3.276-0.82-4.334-2.461c-1.002-1.549-1.502-3.583-1.502-6.101c0-2.29,0.5-4.198,1.502-5.725c1.08-1.652,2.525-2.478,4.334-2.478
		c1.81,0,3.254,0.826,4.335,2.478C366.392,117.173,366.892,119.082,366.892,121.372z M363.132,121.405
		c0-1.303-0.177-2.384-0.531-3.242c-0.39-0.915-0.904-1.372-1.545-1.372s-1.155,0.458-1.544,1.372
		c-0.354,0.858-0.532,1.938-0.532,3.242c0,3.225,0.692,4.837,2.076,4.837C362.44,126.242,363.132,124.63,363.132,121.405z" />
		<path class="st2" d="M381.777,124.191l-1.248,3.059h-0.563v2.341h-3.452v-2.341h-6.597v-2.786l6.597-10.835h3.452v10.562
		C379.966,124.191,381.777,124.191,381.777,124.191z M376.514,124.191v-4.871l-3.127,4.871H376.514z" />
		<path class="st1" d="M407.164,128.686c0,1.152-0.081,2.082-0.241,2.79c-0.255,1.133-0.916,2.147-1.982,3.044
		c-1.35,1.133-3.144,1.699-5.381,1.699c-2.341,0-4.206-0.618-5.593-1.855c-0.926-0.821-1.516-1.68-1.771-2.577
		c-0.028-0.094-0.066-0.292-0.113-0.595h5.211c0.151,0.43,0.354,0.738,0.608,0.925c0.416,0.308,0.944,0.462,1.586,0.462
		c1.076,0,1.902-0.381,2.479-1.144c0.358-0.48,0.538-1.167,0.538-2.061v-1.242c-0.557,0.51-1.023,0.869-1.4,1.076
		c-0.782,0.434-1.706,0.651-2.771,0.651c-1.339,0-2.536-0.345-3.592-1.034c-1.084-0.708-1.862-1.676-2.333-2.903
		c-0.32-0.831-0.48-1.732-0.48-2.705c0-2.152,0.683-3.903,2.05-5.253c1.272-1.255,2.805-1.883,4.596-1.883
		c0.952,0,1.801,0.193,2.546,0.581c0.442,0.236,0.904,0.623,1.386,1.161v-1.374h4.659v12.237H407.164z M402.731,122.979
		c0-0.84-0.287-1.562-0.859-2.167c-0.573-0.604-1.278-0.906-2.114-0.906c-0.93,0-1.691,0.359-2.283,1.076
		c-0.47,0.576-0.705,1.241-0.705,1.997c0,0.84,0.289,1.56,0.867,2.16c0.578,0.599,1.285,0.899,2.121,0.899
		c0.826,0,1.529-0.3,2.106-0.899C402.442,124.539,402.731,123.819,402.731,122.979z" />
		<path class="st1" d="M425.629,123.021c0,1.822-0.6,3.384-1.799,4.687c-1.453,1.586-3.487,2.379-6.103,2.379
		c-2.624,0-4.663-0.793-6.117-2.379c-1.199-1.303-1.798-2.903-1.798-4.8c0-1.708,0.604-3.224,1.812-4.545
		c1.463-1.595,3.544-2.393,6.244-2.393c2.482,0,4.465,0.798,5.947,2.393C425.024,119.666,425.629,121.218,425.629,123.021z
		 M420.786,123.021c0-0.854-0.299-1.577-0.896-2.169s-1.317-0.889-2.163-0.889c-0.958,0-1.738,0.36-2.34,1.081
		c-0.488,0.579-0.733,1.238-0.733,1.978c0,0.749,0.245,1.413,0.733,1.992c0.602,0.721,1.382,1.081,2.34,1.081
		c0.854,0,1.578-0.296,2.171-0.889C420.49,124.612,420.786,123.885,420.786,123.021z" />
		<path class="st1"
			d="M436.122,120.26h-2.647v9.332h-4.659v-9.332h-1.529v-3.809h1.529V112.5h4.659v3.951h2.647V120.26z" />
		<path class="st1" d="M450.793,111.403c0,0.734-0.252,1.354-0.756,1.857c-0.503,0.503-1.122,0.755-1.856,0.755
		c-0.726,0-1.34-0.254-1.844-0.762c-0.503-0.509-0.755-1.125-0.755-1.85s0.252-1.339,0.755-1.843
		c0.504-0.503,1.118-0.755,1.844-0.755c0.725,0,1.341,0.252,1.85,0.755C450.539,110.064,450.793,110.678,450.793,111.403z
		 M450.51,129.592h-4.658v-13.141h4.658V129.592z" />
		<path class="st1" d="M467.545,129.592h-4.659v-6.646c0-1.159-0.132-1.927-0.395-2.304c-0.384-0.556-0.961-0.834-1.73-0.834
		c-0.703,0-1.295,0.24-1.773,0.718c-0.432,0.432-0.647,1.108-0.647,2.029v7.038h-4.658v-13.141h4.658v1.657
		c0.538-0.623,1.032-1.062,1.485-1.317c0.734-0.416,1.654-0.623,2.757-0.623c1.414,0,2.563,0.382,3.449,1.147
		c1.009,0.869,1.514,2.171,1.514,3.908L467.545,129.592L467.545,129.592z" />
		<path class="st1"
			d="M486.591,120.26h-2.647v9.332h-4.659v-9.332h-1.529v-3.809h1.529V112.5h4.659v3.951h2.647V120.26z" />
		<path class="st1" d="M502.168,129.592h-4.659v-6.646c0-1.168-0.132-1.941-0.395-2.318c-0.384-0.556-0.961-0.834-1.73-0.834
		c-0.713,0-1.304,0.24-1.773,0.718c-0.432,0.442-0.647,1.123-0.647,2.043v7.038h-4.658v-21.269h4.658v9.785
		c0.538-0.623,1.032-1.062,1.485-1.317c0.744-0.425,1.663-0.637,2.757-0.637c1.395,0,2.545,0.387,3.449,1.161
		c1.009,0.869,1.514,2.171,1.514,3.908L502.168,129.592L502.168,129.592z" />
		<path class="st1" d="M519.287,123.885h-9.756c0,1.973,0.948,2.959,2.845,2.959c0.967,0,1.708-0.416,2.225-1.246h4.503
		c-0.358,1.186-0.888,2.104-1.586,2.752c-1.265,1.177-2.959,1.765-5.084,1.765c-2.699,0-4.729-0.821-6.088-2.464
		c-1.02-1.227-1.529-2.724-1.529-4.489c0-2.096,0.637-3.8,1.911-5.112s3.073-1.968,5.396-1.968c2.859,0,4.903,1.041,6.131,3.121
		c0.689,1.172,1.033,2.534,1.033,4.085L519.287,123.885L519.287,123.885z M514.94,121.237c-0.329-1.482-1.207-2.223-2.634-2.223
		c-0.789,0-1.428,0.236-1.916,0.708c-0.385,0.375-0.629,0.881-0.732,1.516L514.94,121.237L514.94,121.237z" />
		<path class="st1" d="M543.912,123.885h-9.756c0,1.973,0.948,2.959,2.845,2.959c0.967,0,1.708-0.416,2.225-1.246h4.503
		c-0.358,1.186-0.888,2.104-1.586,2.752c-1.265,1.177-2.959,1.765-5.084,1.765c-2.699,0-4.729-0.821-6.088-2.464
		c-1.02-1.227-1.529-2.724-1.529-4.489c0-2.096,0.637-3.8,1.911-5.112s3.073-1.968,5.396-1.968c2.859,0,4.903,1.041,6.131,3.121
		c0.689,1.172,1.033,2.534,1.033,4.085L543.912,123.885L543.912,123.885z M539.565,121.237c-0.329-1.482-1.207-2.223-2.634-2.223
		c-0.789,0-1.428,0.236-1.916,0.708c-0.385,0.375-0.629,0.881-0.732,1.516L539.565,121.237L539.565,121.237z" />
		<path class="st1"
			d="M562.618,116.451l-10.55,19.711h-5.211l4.461-8.369l-6.344-11.342h5.395l3.512,6.74l3.413-6.74H562.618z" />
		<path class="st1" d="M578.151,123.885h-9.756c0,1.973,0.948,2.959,2.845,2.959c0.967,0,1.708-0.416,2.225-1.246h4.503
		c-0.358,1.186-0.888,2.104-1.586,2.752c-1.265,1.177-2.959,1.765-5.084,1.765c-2.699,0-4.729-0.821-6.088-2.464
		c-1.02-1.227-1.529-2.724-1.529-4.489c0-2.096,0.637-3.8,1.911-5.112s3.073-1.968,5.396-1.968c2.859,0,4.903,1.041,6.131,3.121
		c0.689,1.172,1.033,2.534,1.033,4.085L578.151,123.885L578.151,123.885z M573.805,121.237c-0.329-1.482-1.207-2.223-2.634-2.223
		c-0.789,0-1.428,0.236-1.916,0.708c-0.385,0.375-0.629,0.881-0.732,1.516L573.805,121.237L573.805,121.237z" />
	</g>
	<g>
		<path class="st3"
			d="M192.41,290.974c0-0.679-0.679-1.843-1.455-2.523c-2.037-1.746-1.843-4.172,0.291-3.687
		c1.552,0.485,2.037-0.679,3.493-8.15c1.746-8.538,5.433-17.269,9.314-22.12c1.649-2.037,2.037-2.232,2.814-0.97
		c2.813,4.269,5.142-18.434,3.105-29.3c-3.881-20.083-21.732-37.935-42.883-42.98c-6.888-1.552-24.158-1.746-30.658-0.291
		l-4.172,0.873v6.5c0,8.926-3.493,15.135-10.575,19.016c-4.269,2.328-5.821,2.62-10.575,2.231c-3.008-0.194-6.5-0.776-7.664-1.164
		c-2.037-0.679-2.523-0.097-5.336,5.821c-2.619,5.821-3.105,7.859-3.396,16.396c-0.291,7.568,0.097,10.866,1.358,14.65l1.746,4.851
		l7.373-0.291c6.403-0.388,8.053-0.097,13.583,2.522c8.441,3.881,17.852,10.769,29.688,21.732
		c12.128,11.351,18.822,16.978,24.837,21.053c4.366,2.911,4.851,3.105,8.247,1.94C187.365,295.243,192.41,292.43,192.41,290.974z
		 M182.417,274.093c-1.455,3.493-1.843,3.687-5.724,3.687c-9.702,0-22.12-4.56-25.904-9.314c-4.366-5.53-1.067-10.284,9.799-13.874
		c3.396-1.164,9.217-3.978,12.904-6.403c3.784-2.329,7.277-4.366,7.956-4.366C184.94,243.726,185.716,266.235,182.417,274.093z" />
		<path class="st4"
			d="M213.561,390.711c-8.441-0.388-15.329-0.97-15.329-1.455c0-0.388,1.552-2.134,3.493-3.978
			c11.933-11.06,12.904-33.569,1.94-43.271c-4.172-3.59-7.664-5.53-11.933-6.5c-1.746-0.291-3.202-0.776-3.202-0.873
			s0.873-1.843,1.94-3.978s1.94-5.142,1.94-6.791c-0.097-3.978-3.978-13.098-7.664-17.755c-1.649-2.134-3.008-4.075-3.008-4.366
			c0-0.291,1.358-0.776,2.911-1.164c3.299-0.679,13.583-10.672,13.583-13.098c0-0.776-0.485-3.105-0.97-5.045
			c-1.164-4.075,0-7.179,7.373-19.21c6.112-9.896,8.344-16.687,8.829-27.165c0.388-7.956,0.194-10.09-1.649-15.038
			c-1.552-4.269-2.231-8.247-2.328-14.553c-0.194-10.478-1.358-13.098-7.276-16.978c-3.881-2.62-5.142-2.911-11.06-2.814
			c-5.433,0.194-6.888-0.194-8.732-1.843c-1.164-1.067-4.56-3.105-7.471-4.463c-12.127-5.53-23.382-6.791-38.517-4.366l-7.471,1.164
			l-2.425-2.911c-1.358-1.649-3.881-3.687-5.627-4.56c-4.172-2.134-13.292-2.037-18.24,0.291
			c-12.224,5.53-15.911,21.635-7.568,32.695l2.231,3.008l-3.008,5.627c-1.649,3.008-3.784,8.926-4.948,13.001
			c-1.649,6.403-1.843,9.217-1.261,20.568c0.485,11.157,0.291,13.389-0.97,14.456c-0.776,0.679-2.911,4.075-4.657,7.664
			c-4.657,9.314-11.448,21.732-12.516,23.091c-0.679,0.873-0.679,1.261,0,1.261c0.582,0,1.261-0.388,1.649-0.873
			c0.291-0.485,2.911-1.455,5.918-2.134c6.694-1.455,17.172-0.097,30.173,4.075c20.956,6.694,27.747,11.157,39.293,25.71
			c4.657,6.015,9.993,11.739,11.642,12.904c2.231,1.358,2.716,2.037,1.746,2.328c-11.739,3.59-17.755,8.344-22.703,18.143
			c-4.172,8.441-5.821,18.046-5.142,30.173l0.485,9.314l-11.933,0.582c-18.822,0.873-34.442-2.231-50.547-9.993
			c-11.254-5.433-18.337-11.351-21.732-18.046c-1.94-3.978-2.328-6.112-2.231-13.001c0.097-9.799,2.037-16.008,9.702-31.337
			c11.739-23.479,11.836-28.815,0.097-6.694c-4.851,9.217-10.963,25.322-12.419,32.987c-1.746,8.635-0.873,18.919,2.134,25.128
			c3.105,6.306,10.866,15.329,14.456,16.881c1.552,0.582,2.814,1.455,2.814,1.843s-7.568,0.97-16.687,1.358
			c-16.202,0.679-32.695,2.037-37.547,3.105c-6.888,1.552,6.015,3.59,33.375,5.239c20.277,1.261,156.374,2.379,176.359,1.117
			c15.911-0.97,205.693,0.701,208.312-0.172C432.135,398.254,241.211,391.875,213.561,390.711z M173.297,295.146
			c-6.015-4.075-12.71-9.702-24.837-21.053c-11.836-10.963-21.247-17.852-29.688-21.732c-5.53-2.62-7.179-2.911-13.583-2.522
			l-7.373,0.291l-1.746-4.851c-1.261-3.784-1.649-7.082-1.358-14.65c0.291-8.538,0.776-10.575,3.396-16.396
			c2.814-5.918,3.299-6.5,5.336-5.821c1.164,0.388,4.657,0.97,7.664,1.164c4.754,0.388,6.306,0.097,10.575-2.231
			c7.082-3.881,10.575-10.09,10.575-19.016v-6.5l4.172-0.873c6.5-1.455,23.77-1.261,30.658,0.291
			c21.15,5.045,39.002,22.897,42.883,42.98c2.037,10.866-0.291,33.569-3.105,29.3c-0.776-1.261-1.164-1.067-2.814,0.97
			c-3.881,4.851-7.568,13.583-9.314,22.12c-1.455,7.47-1.94,8.635-3.493,8.15c-2.134-0.485-2.329,1.94-0.291,3.687
			c0.776,0.679,1.455,1.843,1.455,2.523c0,1.455-5.045,4.269-10.866,6.112C178.148,298.251,177.663,298.057,173.297,295.146z" />
		<path class="st4" d="M176.693,277.78c3.881,0,4.269-0.194,5.724-3.687c3.299-7.859,2.523-30.367-0.97-30.27
		c-0.679,0-4.172,2.037-7.956,4.366c-3.687,2.425-9.508,5.239-12.904,6.403c-10.866,3.59-14.165,8.344-9.799,13.874
		c3.055,3.839,11.741,7.548,20.08,8.835c-0.001,0.027-0.021,1.277,1.389,1.471c1.148,0.158,2.01-1.081,2.01-1.081 M177.281,270.105
		c-1.381,3.126-3.519,5.21-4.773,4.655c-1.255-0.555-1.153-3.538,0.229-6.664c1.381-3.126,3.518-5.21,4.773-4.655
		S178.663,266.98,177.281,270.105z" />
		<path class="st4" d="M176.771,257.088c-2.443-0.627-7.634-0.82-10.323,2.712c-2.689,3.531-1.859,9.45,0.585,10.077
		c2.443,0.627,6.604-1.728,9.293-5.259C179.014,261.085,179.214,257.715,176.771,257.088z">
			<animateTransform attributeName="transform" attributeType="XML" type="translate" from="0 0"
				values="4, 5; 0 0; 0 0;0 0;0 0;0 0;0 0;0 0;0 0;0 0;" dur="2000ms" begin="100ms"
				repeatCount="indefinite" />
		</path>
		<g>
			<path class="st4" d="M175.498,269.215c-1.039,0-1.881,0.842-1.881,1.881s0.842,1.881,1.881,1.881s1.881-0.842,1.881-1.881
			S176.537,269.215,175.498,269.215z M175.353,270.867c-0.444,0-0.804-0.254-0.804-0.568s0.36-0.568,0.804-0.568
			s0.804,0.254,0.804,0.568S175.797,270.867,175.353,270.867z" />
		</g>
	</g>
	<g id="Слой_2">
		<g>
			<path class="st4" d="M351.993,256.787c-0.22,0.012-1.007,0.093-1.736,0.162c-8.309,0.775-16.606,4.293-23.029,9.779
			c-0.544,0.451-1.273,1.088-1.62,1.412l-0.636,0.567l-0.787-0.671c-0.125-0.108-0.252-0.214-0.38-0.318
			c-3.015-2.445-6.745-3.602-10.464-3.258c-3.044,0.289-5.439,1.227-7.823,3.078c-2.916,2.257-4.872,5.624-5.416,9.339
			c-0.474,3.148,0.046,6.145,1.562,8.969c2.025,3.807,5.694,6.573,9.825,7.43l0.984,0.197l-0.012,0.509
			c0,0.278-0.069,1.493-0.127,2.708c-0.66,12.139,3.761,23.654,12.382,32.252l1.481,1.481l-0.683,1.007
			c-5.161,7.696-9.385,15.762-11.457,21.849c-1.227,3.599-1.747,6.203-1.84,9.154c-0.116,3.668,0.498,5.902,2.083,7.649
			c1.944,2.129,4.86,3.726,10.832,5.948l0.741,0.278l-0.023,0.868c-0.208,8.124-0.22,9.952-0.127,12.973
			c0.139,4.328,0.347,6.214,0.891,8.089c0.347,1.204,0.683,1.805,1.366,2.407c1.713,1.504,5.589,2.569,10.531,2.893
			c2.523,0.174,6.619-0.382,9.489-1.261c3.68-1.134,4.976-2.824,5.798-7.511c0.278-1.643,0.347-7.082,0.116-9.779
			c-0.093-1.134-0.162-2.095-0.139-2.106c0.012-0.023,0.602,0.023,1.296,0.093c0.694,0.069,1.713,0.093,2.28,0.058
			c0.579-0.046,1.007-0.035,1.007,0.023s-0.081,0.879-0.197,1.828c-0.243,2.199-0.278,7.846-0.058,9.339
			c0.22,1.504,0.636,3.055,1.076,3.958c0.463,0.961,1.921,2.511,3.113,3.287c1.759,1.157,4.814,2.384,7.186,2.905
			c4.016,0.879,9.304,0.44,12.255-1.018c1.042-0.521,2.314-1.701,2.65-2.477c0.474-1.111,0.752-2.974,0.949-6.249
			c0.139-2.233,0.069-13.945-0.081-16.884l-0.081-1.331l0.509-0.15c1.377-0.405,4.178-1.516,5.833-2.314
			c4.756-2.303,6.724-4.178,7.464-7.129c1.18-4.745-0.093-11.202-3.819-19.384c-2.129-4.687-6.018-11.48-9.547-16.664
			c-0.59-0.856-1.099-1.62-1.146-1.701c-0.046-0.081,0.382-0.625,1.03-1.319c4.143-4.432,7.186-9.57,9.142-15.438
			c1.099-3.298,1.747-6.446,2.037-9.918c0.116-1.366,0.093-7.36-0.023-7.846c-0.035-0.127,0.104-0.174,0.648-0.197
			c4.108-0.197,7.835-2.291,10.068-5.636c2.801-4.224,2.824-9.732,0.058-13.956c-3.067-4.652-8.772-6.793-14.061-5.265
			c-1.863,0.544-3.854,1.655-5.127,2.882l-0.498,0.474l-0.231-0.289c-2.257-2.801-5.624-5.983-8.552-8.054
			c-7.163-5.092-15.935-7.858-24.649-7.777C353.254,256.741,352.213,256.764,351.993,256.787z" />
			<path class="st6" d="M311.939,293.35c2.256-14.21,11.455-23.608,12.651-24.968" />
			<path class="st7" d="M388.09,272.516c0,0,7.084,7.53,9.051,21.795" />
		</g>
	</g>
</svg>