<svg width="1280" height="598" viewBox="0 0 1280 598" fill="none" xmlns="http://www.w3.org/2000/svg">
<g clip-path="url(#clip0_2164_448)">
<path d="M1121.8 232.298C1137.23 238.669 1151.81 246.313 1165.95 255.231C1260.68 313.837 1320.69 428.075 1303.12 537.218C1285.12 648.059 1166.81 805.614 1049.79 828.547C1011.64 836.191 972.628 825.574 935.335 814.108C872.752 794.997 814.026 763.996 752.3 746.159C728.296 739.364 702.148 737.666 679 747.009C638.707 763.146 628.848 797.97 611.702 833.218C592.412 873.138 559.835 906.688 520.399 927.497C439.383 969.965 334.792 950.005 259.777 904.14C148.327 836.191 108.463 702.417 145.327 580.959C154.757 549.533 169.76 518.532 194.622 496.448C237.059 458.227 300.928 451.432 356.653 465.447C395.232 475.214 430.381 493.9 463.816 514.285C491.25 531.272 516.541 554.629 550.404 554.629C618.989 555.054 639.993 467.57 661.854 418.732C690.574 354.181 739.012 297.699 799.023 259.903C895.899 198.324 1016.35 187.707 1121.8 232.298Z" fill="url(#paint0_linear_2164_448)"/>
<path d="M1121.84 232.557C1137.26 238.925 1151.83 246.568 1165.97 255.485C1260.65 314.078 1320.64 428.293 1303.07 537.414C1285.08 648.232 1166.82 805.756 1049.86 828.684C1011.72 836.326 972.734 825.712 935.458 814.248C872.904 795.141 814.206 764.146 752.509 746.313C728.515 739.519 702.38 737.821 679.243 747.162C638.969 763.297 629.114 798.113 611.976 833.354C592.696 873.266 560.133 906.809 520.716 927.614C439.738 970.073 335.195 950.117 260.216 904.261C148.818 836.326 108.972 702.58 145.819 581.147C155.245 549.727 170.241 518.732 195.091 496.653C237.508 458.439 301.347 451.646 357.046 465.658C395.607 475.423 430.74 494.105 464.16 514.486C491.581 531.469 516.859 554.822 550.707 554.822C619.26 555.246 640.254 467.781 662.105 418.952C690.812 354.414 739.227 297.944 799.21 260.155C896.041 198.589 1016.44 187.974 1121.84 232.557Z" fill="url(#paint1_radial_2164_448)"/>
<path d="M112.32 1104.59C-81.4312 959.773 31.7333 640.839 218.198 543.163C288.068 506.641 369.512 492.626 447.956 502.819C518.684 512.161 606.986 535.943 679.429 508.764C734.296 487.955 759.587 436.569 788.307 389.854C868.036 259.903 1069.07 235.696 1168.95 358.853C1205.82 404.293 1220.82 467.57 1202.81 523.203C1160.38 652.305 1018.06 597.097 937.478 666.32C905.329 693.924 896.756 749.132 877.895 786.079C858.606 823.875 835.03 859.973 809.739 894.372C756.586 966.992 691.86 1033.24 617.274 1084.63C468.531 1187.4 282.496 1217.98 125.18 1113.93C120.893 1110.96 116.607 1107.99 112.32 1104.59Z" fill="url(#paint2_linear_2164_448)"/>
<path d="M112.32 1104.59C-81.4312 959.773 31.7333 640.839 218.198 543.163C288.068 506.641 369.512 492.626 447.956 502.819C518.684 512.161 606.986 535.943 679.429 508.764C734.296 487.955 759.587 436.569 788.307 389.854C868.036 259.903 1069.07 235.696 1168.95 358.853C1205.82 404.293 1220.82 467.57 1202.81 523.203C1160.38 652.305 1018.06 597.097 937.478 666.32C905.329 693.924 896.756 749.132 877.895 786.079C858.606 823.875 835.03 859.973 809.739 894.372C756.586 966.992 691.86 1033.24 617.274 1084.63C468.531 1187.4 282.496 1217.98 125.18 1113.93C120.893 1110.96 116.607 1107.99 112.32 1104.59Z" fill="url(#paint3_radial_2164_448)"/>
</g>
<g clip-path="url(#clip1_2164_448)">
<path d="M920.271 242.833C934.314 248.685 947.576 255.707 960.448 263.899C1046.65 317.732 1101.26 422.669 1085.27 522.925C1068.89 624.74 961.228 769.467 854.74 790.532C820.024 797.554 784.528 787.802 750.593 777.269C693.643 759.715 640.204 731.237 584.034 714.853C562.191 708.612 538.397 707.051 517.333 715.633C480.667 730.457 471.695 762.445 456.093 794.824C438.54 831.493 408.895 862.311 373.008 881.426C299.286 920.435 204.11 902.101 135.848 859.97C34.431 797.554 -1.84507 674.673 31.7006 563.105C40.2821 534.237 53.9344 505.76 76.5582 485.475C115.175 450.366 173.295 444.125 224.003 456.998C259.109 465.97 291.095 483.134 321.52 501.859C346.484 517.463 369.498 538.919 400.313 538.919C462.724 539.309 481.837 458.948 501.73 414.087C527.865 354.792 571.942 302.909 626.552 268.19C714.707 211.626 824.315 201.873 920.271 242.833Z" fill="url(#paint4_linear_2164_448)"/>
<path d="M920.304 243.071C934.34 248.921 947.596 255.941 960.462 264.132C1046.63 317.954 1101.21 422.87 1085.22 523.105C1068.85 624.9 961.242 769.597 854.803 790.658C820.104 797.678 784.624 787.928 750.704 777.397C693.781 759.847 640.367 731.375 584.224 714.994C562.39 708.754 538.607 707.194 517.553 715.774C480.904 730.595 471.937 762.577 456.342 794.948C438.797 831.61 409.166 862.422 373.296 881.533C299.608 920.535 204.476 902.204 136.247 860.082C34.8768 797.678 -1.38235 674.822 32.1477 563.277C40.7251 534.415 54.3711 505.944 76.9844 485.663C115.583 450.561 173.676 444.321 224.361 457.191C259.45 466.162 291.421 483.323 321.832 502.044C346.784 517.644 369.787 539.095 400.588 539.095C462.97 539.485 482.074 459.141 501.958 414.289C528.08 355.006 572.137 303.134 626.721 268.422C714.835 211.869 824.392 202.119 920.304 243.071Z" fill="url(#paint5_radial_2164_448)"/>
<path d="M1.66545 1044.1C-174.644 911.073 -71.667 618.109 98.0119 528.386C161.593 494.837 235.705 481.964 307.087 491.326C371.448 499.909 451.802 521.754 517.723 496.788C567.652 477.673 590.666 430.471 616.8 387.56C689.352 268.19 872.293 245.954 963.179 359.083C996.724 400.824 1010.38 458.948 993.994 510.051C955.377 628.641 825.875 577.928 752.543 641.515C723.288 666.871 715.487 717.584 698.324 751.523C680.771 786.241 659.317 819.4 636.303 850.998C587.935 917.705 529.035 978.56 461.164 1025.76C325.811 1120.17 156.522 1148.25 13.3675 1052.68C9.46684 1049.95 5.56611 1047.22 1.66545 1044.1Z" fill="url(#paint6_linear_2164_448)"/>
<path d="M1.66545 1044.1C-174.644 911.073 -71.667 618.109 98.0119 528.386C161.593 494.837 235.705 481.964 307.087 491.326C371.448 499.909 451.802 521.754 517.723 496.788C567.652 477.673 590.666 430.471 616.8 387.56C689.352 268.19 872.293 245.954 963.179 359.083C996.724 400.824 1010.38 458.948 993.994 510.051C955.377 628.641 825.875 577.928 752.543 641.515C723.288 666.871 715.487 717.584 698.324 751.523C680.771 786.241 659.317 819.4 636.303 850.998C587.935 917.705 529.035 978.56 461.164 1025.76C325.811 1120.17 156.522 1148.25 13.3675 1052.68C9.46684 1049.95 5.56611 1047.22 1.66545 1044.1Z" fill="url(#paint7_radial_2164_448)"/>
<path d="M432.5 398C415.103 398 401 383.897 401 366.5C401 349.103 415.103 335 432.5 335C449.897 335 464 349.103 464 366.5C464 383.897 449.897 398 432.5 398Z" fill="url(#paint8_linear_2164_448)"/>
</g>
<path fill-rule="evenodd" clip-rule="evenodd" d="M753.107 0.572811C761.791 -1.70736 771.524 3.08273 776.436 10.2815C781.13 17.0424 782.407 26.5724 779.037 34.1453C777.807 36.8221 775.843 39.1899 773.948 41.4745C773.655 41.8279 773.363 42.1794 773.076 42.5297C770.548 45.7882 768.161 49.3944 766.688 53.155C765.11 57.1345 764.561 61.4571 764.023 65.694C763.953 66.2426 763.884 66.7898 763.812 67.3346C763.539 69.1346 763.265 70.9346 763.016 72.7365C763.035 74.8873 762.795 77.0374 762.237 79.1069C761.869 81.692 761.192 84.2352 759.553 86.2922C758.047 88.2735 755.84 88.989 753.534 88.9557C752.849 89.037 752.134 89.0086 751.392 88.8483C750.469 88.6712 749.6 88.367 748.774 87.9706C748.537 87.8796 748.303 87.7838 748.074 87.6839C744.345 86.0139 741.272 83.1981 738.913 79.8941C737.889 78.9974 736.858 78.1079 735.827 77.2184C735.418 76.8511 735.009 76.4806 734.6 76.1092C731.435 73.2408 728.207 70.3142 724.42 68.3179C720.855 66.4192 716.697 65.2324 712.657 64.4017C712.211 64.3222 711.761 64.2448 711.309 64.167C708.383 63.6641 705.351 63.1429 702.676 61.9096C695.19 58.3494 689.962 50.2796 689.131 42.0912C688.18 33.4281 692.458 23.4596 700.537 19.5434C708.855 15.5085 719.073 18.0006 726.915 21.6795C728.738 22.5072 730.551 23.4287 732.333 24.4378C732.98 22.6979 733.691 20.9981 734.46 19.3512C738.024 11.4564 744.165 2.91739 753.107 0.572811Z" fill="url(#paint9_linear_2164_448)"/>
<defs>
<linearGradient id="paint0_linear_2164_448" x1="66.3663" y1="965.404" x2="1683.4" y2="73.9998" gradientUnits="userSpaceOnUse">
<stop stop-color="#FF9370"/>
<stop offset="1" stop-color="#FFDF00"/>
</linearGradient>
<radialGradient id="paint1_radial_2164_448" cx="0" cy="0" r="1" gradientUnits="userSpaceOnUse" gradientTransform="translate(724.531 89.791) rotate(79.6257) scale(1313.6 1235.52)">
<stop stop-color="#FEBB40"/>
<stop offset="0.5576" stop-color="#EC4C76"/>
<stop offset="0.9726" stop-color="#D60B52"/>
</radialGradient>
<linearGradient id="paint2_linear_2164_448" x1="1187.45" y1="-261.926" x2="159.503" y2="1397.7" gradientUnits="userSpaceOnUse">
<stop stop-color="#FFDF00"/>
<stop offset="1" stop-color="#FF9370"/>
</linearGradient>
<radialGradient id="paint3_radial_2164_448" cx="0" cy="0" r="1" gradientUnits="userSpaceOnUse" gradientTransform="translate(883.512 350.069) rotate(-122.724) scale(1401.84 2365.81)">
<stop stop-color="#FEBB40"/>
<stop offset="0.5576" stop-color="#EC4C76"/>
<stop offset="0.9726" stop-color="#D60B52"/>
</radialGradient>
<linearGradient id="paint4_linear_2164_448" x1="-40.1521" y1="916.246" x2="1437.73" y2="109.172" gradientUnits="userSpaceOnUse">
<stop stop-color="#FF9370"/>
<stop offset="1" stop-color="#FFDF00"/>
</linearGradient>
<radialGradient id="paint5_radial_2164_448" cx="0" cy="0" r="1" gradientUnits="userSpaceOnUse" gradientTransform="translate(558.764 111.93) rotate(79.7207) scale(1206.28 1124.64)">
<stop stop-color="#FEBB40"/>
<stop offset="0.5576" stop-color="#EC4C76"/>
<stop offset="0.9726" stop-color="#D60B52"/>
</radialGradient>
<linearGradient id="paint6_linear_2164_448" x1="980.014" y1="-211.149" x2="31.8375" y2="1305.36" gradientUnits="userSpaceOnUse">
<stop stop-color="#FFDF00"/>
<stop offset="1" stop-color="#FF9370"/>
</linearGradient>
<radialGradient id="paint7_radial_2164_448" cx="0" cy="0" r="1" gradientUnits="userSpaceOnUse" gradientTransform="translate(703.435 351.015) rotate(-122.48) scale(1284.19 2158.72)">
<stop stop-color="#FEBB40"/>
<stop offset="0.5576" stop-color="#EC4C76"/>
<stop offset="0.9726" stop-color="#D60B52"/>
</radialGradient>
<linearGradient id="paint8_linear_2164_448" x1="358.913" y1="418.344" x2="509.113" y2="312.255" gradientUnits="userSpaceOnUse">
<stop stop-color="#EC4C76"/>
<stop offset="0.5183" stop-color="#FEBB40"/>
<stop offset="1" stop-color="white"/>
</linearGradient>
<linearGradient id="paint9_linear_2164_448" x1="775.509" y1="39.8964" x2="634.779" y2="71.6348" gradientUnits="userSpaceOnUse">
<stop stop-color="#EC4C76"/>
<stop offset="0.5183" stop-color="#FEBB40"/>
<stop offset="1" stop-color="white"/>
</linearGradient>
<clipPath id="clip0_2164_448">
<rect width="511" height="393" fill="white" transform="translate(795 205)"/>
</clipPath>
<clipPath id="clip1_2164_448">
<rect width="1178" height="538" fill="white" transform="matrix(-1 0 0 1 1088 189)"/>
</clipPath>
</defs>
</svg>
